<?xml version="1.0" standalone="no" ?>
<!DOCTYPE svg PUBLIC "-//W3C//DTD SVG 1.1//EN" "http://www.w3.org/Graphics/SVG/1.1/DTD/svg11.dtd">
<svg width="1161px" height="610px" viewBox="0 0 1161 610" style="background-color: #ffffff00" xmlns="http://www.w3.org/2000/svg" xmlns:xlink="http://www.w3.org/1999/xlink" version="1.1" >
<text x="0" y="0" stroke="none" fill="#000000" transform="matrix(0.1 0 0 0.1 97.5986 474.95)" font-style="normal" font-weight="normal" font-size="200px" font-family="Arial" >
1.0</text>
<text x="0" y="0" stroke="none" fill="#000000" transform="matrix(0.1 0 0 0.1 97.4961 514.95)" font-style="normal" font-weight="bold" font-size="240px" font-family="Times New Roman" >
L1</text>
<text x="0" y="0" stroke="none" fill="#000000" transform="matrix(0.1 0 0 0.1 332.599 374.95)" font-style="normal" font-weight="normal" font-size="200px" font-family="Arial" >
2.0</text>
<text x="0" y="0" stroke="none" fill="#000000" transform="matrix(0.1 0 0 0.1 332.496 414.95)" font-style="normal" font-weight="bold" font-size="240px" font-family="Times New Roman" >
L2</text>
<text x="0" y="0" stroke="none" fill="#000000" transform="matrix(0.1 0 0 0.1 567.599 274.95)" font-style="normal" font-weight="normal" font-size="200px" font-family="Arial" >
3.0</text>
<text x="0" y="0" stroke="none" fill="#000000" transform="matrix(0.1 0 0 0.1 567.496 314.95)" font-style="normal" font-weight="bold" font-size="240px" font-family="Times New Roman" >
L3</text>
<text x="0" y="0" stroke="none" fill="#000000" transform="matrix(0.1 0 0 0.1 802.599 174.95)" font-style="normal" font-weight="normal" font-size="200px" font-family="Arial" >
4.0</text>
<text x="0" y="0" stroke="none" fill="#000000" transform="matrix(0.1 0 0 0.1 802.496 214.95)" font-style="normal" font-weight="bold" font-size="240px" font-family="Times New Roman" >
L4</text>
<text x="0" y="0" stroke="none" fill="#000000" transform="matrix(0.1 0 0 0.1 1037.6 74.95)" font-style="normal" font-weight="normal" font-size="200px" font-family="Arial" >
5.0</text>
<text x="0" y="0" stroke="none" fill="#000000" transform="matrix(0.1 0 0 0.1 1037.5 114.95)" font-style="normal" font-weight="bold" font-size="240px" font-family="Times New Roman" >
L5</text>
<path stroke="none" fill="#000000" transform="matrix(0.1 0 0 0.1 1.5 4.95)" d="M 800,4780 L 1400,4780 L 1400,4820 L 800,4820 Z " />
<path stroke="#000000" stroke-width="12" fill="none" transform="matrix(0.1 0 0 0.1 1.5 4.95)" stroke-dasharray="50" d="M 1400,4800 L 3150,3800 " />
<path stroke="none" fill="#000000" transform="matrix(0.1 0 0 0.1 1.5 4.95)" d="M 3150,3780 L 3750,3780 L 3750,3820 L 3150,3820 Z " />
<path stroke="#000000" stroke-width="12" fill="none" transform="matrix(0.1 0 0 0.1 1.5 4.95)" stroke-dasharray="50" d="M 3750,3800 L 5500,2800 " />
<path stroke="none" fill="#000000" transform="matrix(0.1 0 0 0.1 1.5 4.95)" d="M 5500,2780 L 6100,2780 L 6100,2820 L 5500,2820 Z " />
<path stroke="#000000" stroke-width="12" fill="none" transform="matrix(0.1 0 0 0.1 1.5 4.95)" stroke-dasharray="50" d="M 6100,2800 L 7850,1800 " />
<path stroke="none" fill="#000000" transform="matrix(0.1 0 0 0.1 1.5 4.95)" d="M 7850,1780 L 8450,1780 L 8450,1820 L 7850,1820 Z " />
<path stroke="#000000" stroke-width="12" fill="none" transform="matrix(0.1 0 0 0.1 1.5 4.95)" stroke-dasharray="50" d="M 8450,1800 L 10200,800 " />
<path stroke="none" fill="#000000" transform="matrix(0.1 0 0 0.1 1.5 4.95)" d="M 10200,780 L 10800,780 L 10800,820 L 10200,820 Z " />
<path stroke="none" fill="#0080ff" transform="matrix(0.1 0 0 0.1 1.5 4.95)" d="M 186,178.998 L 186,5851 L 174,5851 L 174,178.998 Z " />
<path stroke="none" fill="#0080ff" transform="matrix(0.1 0 0 0.1 1.5 4.95)" d="M 180,75 C 180,75 211,194.998 211,194.998 C 211,194.998 193.562,179.998 180,179.998 C 166,179.998 148,194.998 148,194.998 C 148,194.998 180,75 180,75 C 180,75 180,75 180,75 " />
<path stroke="#0080ff" stroke-width="1" fill="none" transform="matrix(0.1 0 0 0.1 1.5 4.95)" d="M 180,75 C 180,75 211,194.998 211,194.998 C 211,194.998 193.562,179.998 180,179.998 C 166,179.998 148,194.998 148,194.998 C 148,194.998 180,75 180,75 C 180,75 180,75 180,75 " />
<path stroke="none" fill="#0080ff" transform="matrix(0.1 0 0 0.1 1.5 4.95)" d="M 180,5955 C 180,5955 212,5835 212,5835 C 212,5835 194,5850 180,5850 C 166.438,5850 149,5835 149,5835 C 149,5835 180,5955 180,5955 C 180,5955 180,5955 180,5955 " />
<path stroke="#0080ff" stroke-width="1" fill="none" transform="matrix(0.1 0 0 0.1 1.5 4.95)" d="M 180,5955 C 180,5955 212,5835 212,5835 C 212,5835 194,5850 180,5850 C 166.438,5850 149,5835 149,5835 C 149,5835 180,5955 180,5955 C 180,5955 180,5955 180,5955 " />
<path stroke="none" fill="#0080ff" transform="matrix(0.1 0 0 0.1 1.5 4.95)" d="M 11416,5891 L 323.998,5891 L 323.998,5879 L 11416,5879 Z " />
<path stroke="none" fill="#0080ff" transform="matrix(0.1 0 0 0.1 1.5 4.95)" d="M 11520,5885 C 11520,5885 11400,5916 11400,5916 C 11400,5916 11415,5898.56 11415,5885 C 11415,5871 11400,5853 11400,5853 C 11400,5853 11520,5885 11520,5885 C 11520,5885 11520,5885 11520,5885 " />
<path stroke="#0080ff" stroke-width="1" fill="none" transform="matrix(0.1 0 0 0.1 1.5 4.95)" d="M 11520,5885 C 11520,5885 11400,5916 11400,5916 C 11400,5916 11415,5898.56 11415,5885 C 11415,5871 11400,5853 11400,5853 C 11400,5853 11520,5885 11520,5885 C 11520,5885 11520,5885 11520,5885 " />
<path stroke="none" fill="#0080ff" transform="matrix(0.1 0 0 0.1 1.5 4.95)" d="M 220,5885 C 220,5885 339.998,5917 339.998,5917 C 339.998,5917 324.998,5899 324.998,5885 C 324.998,5871.44 339.998,5854 339.998,5854 C 339.998,5854 220,5885 220,5885 C 220,5885 220,5885 220,5885 " />
<path stroke="#0080ff" stroke-width="1" fill="none" transform="matrix(0.1 0 0 0.1 1.5 4.95)" d="M 220,5885 C 220,5885 339.998,5917 339.998,5917 C 339.998,5917 324.998,5899 324.998,5885 C 324.998,5871.44 339.998,5854 339.998,5854 C 339.998,5854 220,5885 220,5885 C 220,5885 220,5885 220,5885 " />
<path stroke="none" fill="#0080ff" transform="matrix(0.1 0 0 0.1 1.5 4.95)" d="M 10746,5301 L 933.998,5301 L 933.998,5289 L 10746,5289 Z " />
<path stroke="none" fill="#0080ff" transform="matrix(0.1 0 0 0.1 1.5 4.95)" d="M 10850,5295 C 10850,5295 10730,5326 10730,5326 C 10730,5326 10745,5308.56 10745,5295 C 10745,5281 10730,5263 10730,5263 C 10730,5263 10850,5295 10850,5295 C 10850,5295 10850,5295 10850,5295 " />
<path stroke="#0080ff" stroke-width="1" fill="none" transform="matrix(0.1 0 0 0.1 1.5 4.95)" d="M 10850,5295 C 10850,5295 10730,5326 10730,5326 C 10730,5326 10745,5308.56 10745,5295 C 10745,5281 10730,5263 10730,5263 C 10730,5263 10850,5295 10850,5295 C 10850,5295 10850,5295 10850,5295 " />
<path stroke="none" fill="#0080ff" transform="matrix(0.1 0 0 0.1 1.5 4.95)" d="M 830,5295 C 830,5295 949.998,5327 949.998,5327 C 949.998,5327 934.998,5309 934.998,5295 C 934.998,5281.44 949.998,5264 949.998,5264 C 949.998,5264 830,5295 830,5295 C 830,5295 830,5295 830,5295 " />
<path stroke="#0080ff" stroke-width="1" fill="none" transform="matrix(0.1 0 0 0.1 1.5 4.95)" d="M 830,5295 C 830,5295 949.998,5327 949.998,5327 C 949.998,5327 934.998,5309 934.998,5295 C 934.998,5281.44 949.998,5264 949.998,5264 C 949.998,5264 830,5295 830,5295 C 830,5295 830,5295 830,5295 " />
<path stroke="none" fill="#0080ff" transform="matrix(0.1 0 0 0.1 1.5 4.95)" d="M 10916,628.998 L 10916,5111 L 10904,5111 L 10904,628.998 Z " />
<path stroke="none" fill="#0080ff" transform="matrix(0.1 0 0 0.1 1.5 4.95)" d="M 10910,525 C 10910,525 10941,644.998 10941,644.998 C 10941,644.998 10923.6,629.998 10910,629.998 C 10896,629.998 10878,644.998 10878,644.998 C 10878,644.998 10910,525 10910,525 C 10910,525 10910,525 10910,525 " />
<path stroke="#0080ff" stroke-width="1" fill="none" transform="matrix(0.1 0 0 0.1 1.5 4.95)" d="M 10910,525 C 10910,525 10941,644.998 10941,644.998 C 10941,644.998 10923.6,629.998 10910,629.998 C 10896,629.998 10878,644.998 10878,644.998 C 10878,644.998 10910,525 10910,525 C 10910,525 10910,525 10910,525 " />
<path stroke="none" fill="#0080ff" transform="matrix(0.1 0 0 0.1 1.5 4.95)" d="M 10910,5215 C 10910,5215 10942,5095 10942,5095 C 10942,5095 10924,5110 10910,5110 C 10896.4,5110 10879,5095 10879,5095 C 10879,5095 10910,5215 10910,5215 C 10910,5215 10910,5215 10910,5215 " />
<path stroke="#0080ff" stroke-width="1" fill="none" transform="matrix(0.1 0 0 0.1 1.5 4.95)" d="M 10910,5215 C 10910,5215 10942,5095 10942,5095 C 10942,5095 10924,5110 10910,5110 C 10896.4,5110 10879,5095 10879,5095 C 10879,5095 10910,5215 10910,5215 C 10910,5215 10910,5215 10910,5215 " />
<path stroke="none" fill="#0080ff" transform="matrix(0.1 0 0 0.1 1.5 4.95)" d="M 676.002,3891 L 273.998,3891 L 273.998,3879 L 676.002,3879 Z " />
<path stroke="none" fill="#0080ff" transform="matrix(0.1 0 0 0.1 1.5 4.95)" d="M 780,3885 C 780,3885 660.002,3916 660.002,3916 C 660.002,3916 675.002,3898.56 675.002,3885 C 675.002,3871 660.002,3853 660.002,3853 C 660.002,3853 780,3885 780,3885 C 780,3885 780,3885 780,3885 " />
<path stroke="#0080ff" stroke-width="1" fill="none" transform="matrix(0.1 0 0 0.1 1.5 4.95)" d="M 780,3885 C 780,3885 660.002,3916 660.002,3916 C 660.002,3916 675.002,3898.56 675.002,3885 C 675.002,3871 660.002,3853 660.002,3853 C 660.002,3853 780,3885 780,3885 C 780,3885 780,3885 780,3885 " />
<path stroke="none" fill="#0080ff" transform="matrix(0.1 0 0 0.1 1.5 4.95)" d="M 170,3885 C 170,3885 289.998,3917 289.998,3917 C 289.998,3917 274.998,3899 274.998,3885 C 274.998,3871.44 289.998,3854 289.998,3854 C 289.998,3854 170,3885 170,3885 C 170,3885 170,3885 170,3885 " />
<path stroke="#0080ff" stroke-width="1" fill="none" transform="matrix(0.1 0 0 0.1 1.5 4.95)" d="M 170,3885 C 170,3885 289.998,3917 289.998,3917 C 289.998,3917 274.998,3899 274.998,3885 C 274.998,3871.44 289.998,3854 289.998,3854 C 289.998,3854 170,3885 170,3885 C 170,3885 170,3885 170,3885 " />
<path stroke="none" fill="#0080ff" transform="matrix(0.1 0 0 0.1 1.5 4.95)" d="M 3666,3391 L 3264,3391 L 3264,3379 L 3666,3379 Z " />
<path stroke="none" fill="#0080ff" transform="matrix(0.1 0 0 0.1 1.5 4.95)" d="M 3770,3385 C 3770,3385 3650,3416 3650,3416 C 3650,3416 3665,3398.56 3665,3385 C 3665,3371 3650,3353 3650,3353 C 3650,3353 3770,3385 3770,3385 C 3770,3385 3770,3385 3770,3385 " />
<path stroke="#0080ff" stroke-width="1" fill="none" transform="matrix(0.1 0 0 0.1 1.5 4.95)" d="M 3770,3385 C 3770,3385 3650,3416 3650,3416 C 3650,3416 3665,3398.56 3665,3385 C 3665,3371 3650,3353 3650,3353 C 3650,3353 3770,3385 3770,3385 C 3770,3385 3770,3385 3770,3385 " />
<path stroke="none" fill="#0080ff" transform="matrix(0.1 0 0 0.1 1.5 4.95)" d="M 3160,3385 C 3160,3385 3280,3417 3280,3417 C 3280,3417 3265,3399 3265,3385 C 3265,3371.44 3280,3354 3280,3354 C 3280,3354 3160,3385 3160,3385 C 3160,3385 3160,3385 3160,3385 " />
<path stroke="#0080ff" stroke-width="1" fill="none" transform="matrix(0.1 0 0 0.1 1.5 4.95)" d="M 3160,3385 C 3160,3385 3280,3417 3280,3417 C 3280,3417 3265,3399 3265,3385 C 3265,3371.44 3280,3354 3280,3354 C 3280,3354 3160,3385 3160,3385 C 3160,3385 3160,3385 3160,3385 " />
<text x="0" y="0" stroke="none" fill="#0080ff" transform="matrix(0.1 0 0 0.1 310.5 332.45)" font-style="normal" font-weight="normal" font-size="200px" font-family="Arial" >
%length</text>
<text x="0" y="0" stroke="none" fill="#0080ff" transform="matrix(0.1 0 0 0.1 32.5 138.45)" font-style="normal" font-weight="normal" font-size="200px" font-family="Arial" >
%pageheight</text>
<text x="0" y="0" stroke="none" fill="#0080ff" transform="matrix(0.1 0 0 0.1 511.5 581.45)" font-style="normal" font-weight="normal" font-size="200px" font-family="Arial" >
%pagewidth</text>
<text x="0" y="0" stroke="none" fill="#0080ff" transform="matrix(0.1 0 0 0.1 531.5 524.45)" font-style="normal" font-weight="normal" font-size="200px" font-family="Arial" >
%width</text>
<text x="0" y="0" stroke="none" fill="#0080ff" transform="matrix(0.1 0 0 0.1 1009.5 296.45)" font-style="normal" font-weight="normal" font-size="200px" font-family="Arial" >
%height</text>
<text x="0" y="0" stroke="none" fill="#0080ff" transform="matrix(0.1 0 0 0.1 33.5 378.45)" font-style="normal" font-weight="normal" font-size="200px" font-family="Arial" >
%padding</text>
<text x="0" y="0" stroke="none" fill="#0080ff" transform="matrix(0.1 0 0 0.1 261.5 45.45)" font-style="normal" font-weight="normal" font-size="200px" font-family="Arial" >
%padding</text>
<path stroke="none" fill="#0080ff" transform="matrix(0.1 0 0 0.1 1.5 4.95)" d="M 3604,531.002 L 3604,138.998 L 3616,138.998 L 3616,531.002 Z " />
<path stroke="none" fill="#0080ff" transform="matrix(0.1 0 0 0.1 1.5 4.95)" d="M 3610,635 C 3610,635 3578,515.002 3578,515.002 C 3578,515.002 3596,530.002 3610,530.002 C 3623.56,530.002 3641,515.002 3641,515.002 C 3641,515.002 3610,635 3610,635 C 3610,635 3610,635 3610,635 " />
<path stroke="#0080ff" stroke-width="1" fill="none" transform="matrix(0.1 0 0 0.1 1.5 4.95)" d="M 3610,635 C 3610,635 3578,515.002 3578,515.002 C 3578,515.002 3596,530.002 3610,530.002 C 3623.56,530.002 3641,515.002 3641,515.002 C 3641,515.002 3610,635 3610,635 C 3610,635 3610,635 3610,635 " />
<path stroke="none" fill="#0080ff" transform="matrix(0.1 0 0 0.1 1.5 4.95)" d="M 3610,35 C 3610,35 3579,154.998 3579,154.998 C 3579,154.998 3596.44,139.998 3610,139.998 C 3624,139.998 3642,154.998 3642,154.998 C 3642,154.998 3610,35 3610,35 C 3610,35 3610,35 3610,35 " />
<path stroke="#0080ff" stroke-width="1" fill="none" transform="matrix(0.1 0 0 0.1 1.5 4.95)" d="M 3610,35 C 3610,35 3579,154.998 3579,154.998 C 3579,154.998 3596.44,139.998 3610,139.998 C 3624,139.998 3642,154.998 3642,154.998 C 3642,154.998 3610,35 3610,35 C 3610,35 3610,35 3610,35 " />
<path stroke="#000000" stroke-width="12" fill="none" transform="matrix(0.1 0 0 0.1 1.5 4.95)" d="M 11540,5995 C 11540,5995 11540,4 11540,4 C 11540,4 39,4 39,4 C 39,4 39,5995 39,5995 C 39,5995 11540,5995 11540,5995 " />
</svg>
